<svg width="154" height="126" viewBox="0 0 154 126" fill="none" xmlns="http://www.w3.org/2000/svg">
<path d="M52.9375 106.312C55.5954 106.312 57.75 104.55 57.75 102.375C57.75 100.2 55.5954 98.4375 52.9375 98.4375C50.2796 98.4375 48.125 100.2 48.125 102.375C48.125 104.55 50.2796 106.312 52.9375 106.312Z" stroke="black" stroke-opacity="0.45" stroke-width="3" stroke-linecap="round" stroke-linejoin="round"/>
<path d="M120.312 106.312C122.97 106.312 125.125 104.55 125.125 102.375C125.125 100.2 122.97 98.4375 120.312 98.4375C117.655 98.4375 115.5 100.2 115.5 102.375C115.5 104.55 117.655 106.312 120.312 106.312Z" stroke="black" stroke-opacity="0.45" stroke-width="3" stroke-linecap="round" stroke-linejoin="round"/>
<path d="M14.4375 19.6875H33.6875L48.125 86.625H125.125" stroke="black" stroke-opacity="0.45" stroke-width="3" stroke-linecap="round" stroke-linejoin="round"/>
<path d="M55.1812 70.7368H125.19C125.709 70.7371 126.213 70.5956 126.614 70.3365C127.016 70.0773 127.291 69.7165 127.393 69.3155L135.476 37.4839C135.542 37.2272 135.534 36.9623 135.453 36.7084C135.373 36.4544 135.221 36.2177 135.011 36.0153C134.8 35.8129 134.535 35.6499 134.234 35.538C133.934 35.4262 133.605 35.3682 133.273 35.3684H46.2" stroke="black" stroke-opacity="0.45" stroke-width="3" stroke-linecap="round" stroke-linejoin="round"/>
</svg>
